<svg width="417" height="260" viewBox="0 0 417 260" fill="none" xmlns="http://www.w3.org/2000/svg">
<path fill-rule="evenodd" clip-rule="evenodd" d="M243.287 136.445V21.2102H415.431V106.917C415.431 111.328 411.851 114.905 407.432 114.905H267.8L243.287 136.445Z" fill="#E5EBF1"/>
<mask id="mask0" mask-type="alpha" maskUnits="userSpaceOnUse" x="243" y="0" width="173" height="22">
<path fill-rule="evenodd" clip-rule="evenodd" d="M243.287 0.168213H415.431V21.2111H243.287V0.168213Z" fill="white"/>
</mask>
<g mask="url(#mask0)">
<path fill-rule="evenodd" clip-rule="evenodd" d="M408.006 0.16748H250.713C246.611 0.16748 243.287 3.48607 243.287 7.58116V21.2112H415.431V7.58116C415.431 3.48607 412.108 0.16748 408.006 0.16748Z" fill="#DB3B61"/>
</g>
<path fill-rule="evenodd" clip-rule="evenodd" d="M285.782 11.1807C285.782 13.7879 287.9 15.9026 290.511 15.9026C293.122 15.9026 295.238 13.7879 295.238 11.1807C295.238 8.57355 293.122 6.46094 290.511 6.46094C287.9 6.46094 285.782 8.57355 285.782 11.1807Z" fill="white"/>
<path fill-rule="evenodd" clip-rule="evenodd" d="M270.703 11.1807C270.703 13.7879 272.821 15.9026 275.432 15.9026C278.043 15.9026 280.161 13.7879 280.161 11.1807C280.161 8.57355 278.043 6.46094 275.432 6.46094C272.821 6.46094 270.703 8.57355 270.703 11.1807Z" fill="white"/>
<path fill-rule="evenodd" clip-rule="evenodd" d="M255.623 11.1807C255.623 13.7879 257.741 15.9026 260.353 15.9026C262.964 15.9026 265.082 13.7879 265.082 11.1807C265.082 8.57355 262.964 6.46094 260.353 6.46094C257.741 6.46094 255.623 8.57355 255.623 11.1807Z" fill="white"/>
<path fill-rule="evenodd" clip-rule="evenodd" d="M236.311 232.627C238.436 232.627 240.584 232.064 242.524 230.877C248.155 227.446 249.934 220.106 246.496 214.484L210.76 156.048C207.317 150.422 199.967 148.654 194.341 152.083C188.708 155.515 186.931 162.857 190.37 168.479L226.103 226.912C228.356 230.595 232.286 232.627 236.311 232.627Z" fill="#F4C669"/>
<path fill-rule="evenodd" clip-rule="evenodd" d="M187.583 132.107L185.12 163.682L163.038 161.315L172.279 116.569L187.583 132.107Z" fill="#FFBDA1"/>
<path fill-rule="evenodd" clip-rule="evenodd" d="M160.726 110.935C161.855 124.583 173.853 134.736 187.524 133.608C201.197 132.478 211.364 120.501 210.232 106.849C209.103 93.1993 197.104 83.0483 183.431 84.1762C169.761 85.3041 159.594 97.2857 160.726 110.935Z" fill="#FFBDA1"/>
<mask id="mask1" mask-type="alpha" maskUnits="userSpaceOnUse" x="160" y="84" width="51" height="50">
<path fill-rule="evenodd" clip-rule="evenodd" d="M160.64 108.879C160.633 122.579 171.749 133.686 185.468 133.691C199.187 133.699 210.311 122.598 210.316 108.903C210.324 95.208 199.208 84.0983 185.49 84.0918C171.773 84.0853 160.649 95.1841 160.64 108.879Z" fill="white"/>
</mask>
<g mask="url(#mask1)">
<path fill-rule="evenodd" clip-rule="evenodd" d="M209.345 94.7323C209.345 94.7323 211.594 106.677 175.517 99.0204L172.239 115.574C172.239 115.574 167.89 140.639 167.636 137.562C167.379 134.482 140.268 90.3986 177.424 79.7878C212.165 69.8667 209.345 94.7323 209.345 94.7323Z" fill="#072042"/>
</g>
<path fill-rule="evenodd" clip-rule="evenodd" d="M178.372 112.548C178.09 116.092 174.983 118.737 171.436 118.457C167.886 118.175 165.238 115.073 165.52 111.529C165.8 107.985 168.907 105.341 172.454 105.623C176.004 105.905 178.654 109.004 178.372 112.548Z" fill="#FFBDA1"/>
<path fill-rule="evenodd" clip-rule="evenodd" d="M194.046 147.257H152.364C139.755 147.257 134.088 159.416 134.518 167.121L144.094 245.615C144.509 249.285 147.635 252.05 151.334 252.027L202.27 251.662C206.05 251.634 209.174 248.704 209.437 244.936L214.69 169.353C215.522 157.406 206.039 147.257 194.046 147.257Z" fill="#FFD474"/>
<path fill-rule="evenodd" clip-rule="evenodd" d="M158.195 147.257L194.282 147.287C194.282 147.287 192.47 160.724 176.138 160.724C159.804 160.724 158.195 147.257 158.195 147.257Z" fill="#FFBDA1"/>
<path fill-rule="evenodd" clip-rule="evenodd" d="M141.159 103.38C129.274 98.2913 123.769 84.5485 128.866 72.6818C133.962 60.8152 147.724 55.3189 159.609 60.4074C171.497 65.4937 176.999 79.2387 171.905 91.1054C166.811 102.972 153.044 108.466 141.159 103.38Z" fill="#072042"/>
<path opacity="0.1" fill-rule="evenodd" clip-rule="evenodd" d="M24.7315 259.448H391.832C394.443 259.448 396.563 258.005 396.563 256.224C396.563 254.443 394.443 253 391.832 253H24.7315C22.1181 253 20 254.443 20 256.224C20 258.005 22.1181 259.448 24.7315 259.448Z" fill="#5C636E"/>
<path fill-rule="evenodd" clip-rule="evenodd" d="M196.725 232.009C193.823 226.081 186.658 223.624 180.719 226.519C178.768 227.469 177.206 228.886 176.072 230.558L158.235 231.254L151.948 243.067L177.037 245.188C180.517 249.097 186.291 250.398 191.227 247.988C197.164 245.093 199.625 237.937 196.725 232.009Z" fill="#FFBDA1"/>
<path fill-rule="evenodd" clip-rule="evenodd" d="M163.712 249.605H217.6V242.698H163.712V249.605Z" fill="#CFD1D3"/>
<path fill-rule="evenodd" clip-rule="evenodd" d="M209.532 249.605H290.764C295.444 249.605 299.549 246.49 300.805 241.989L316.644 185.17C318.043 180.146 314.261 175.175 309.038 175.175H234.43C231.304 175.175 228.575 177.275 227.78 180.292L209.532 249.605Z" fill="#E2E4E9"/>
<path fill-rule="evenodd" clip-rule="evenodd" d="M257.564 216.993C257.564 221.232 261.005 224.667 265.25 224.667C269.493 224.667 272.934 221.232 272.934 216.993C272.934 212.755 269.493 209.319 265.25 209.319C261.005 209.319 257.564 212.755 257.564 216.993Z" fill="white"/>
<path fill-rule="evenodd" clip-rule="evenodd" d="M164.769 249.605L114.909 249.355C111.937 249.321 108.98 248.364 106.771 246.379C102.908 242.913 101.822 237.528 103.758 232.977L136.189 158.04C138.653 152.383 145.161 149.689 150.909 151.945C156.925 154.303 159.803 161.148 157.281 167.085L132.346 225.995L165.025 226.359L164.769 249.605Z" fill="#FFD474"/>
<path fill-rule="evenodd" clip-rule="evenodd" d="M179.454 33.1559H132.016C128.544 33.1559 125.731 30.3449 125.731 26.8788V8.53762C125.731 5.07154 128.544 2.2605 132.016 2.2605H179.454C182.928 2.2605 185.743 5.07154 185.743 8.53762V26.8788C185.743 30.3449 182.928 33.1559 179.454 33.1559Z" fill="#E5EBF1"/>
<path fill-rule="evenodd" clip-rule="evenodd" d="M137.504 28.999V40.4492L150.575 28.999H137.504Z" fill="#E5EBF1"/>
<path fill-rule="evenodd" clip-rule="evenodd" d="M98.7277 193.223V78.3308H0.692383V163.783C0.692383 168.18 4.26378 171.748 8.6672 171.748H74.2884L98.7277 193.223Z" fill="#E5EBF1"/>
<path fill-rule="evenodd" clip-rule="evenodd" d="M8.0944 57.3518H91.325C95.4112 57.3518 98.7284 60.6595 98.7284 64.7438V78.3305H0.690918V64.7438C0.690918 60.6595 4.00598 57.3518 8.0944 57.3518Z" fill="#232931"/>
<path fill-rule="evenodd" clip-rule="evenodd" d="M26.4239 68.3325C26.4239 70.931 24.3145 73.0392 21.7098 73.0392C19.1073 73.0392 16.9957 70.931 16.9957 68.3325C16.9957 65.7318 19.1073 63.6257 21.7098 63.6257C24.3145 63.6257 26.4239 65.7318 26.4239 68.3325Z" fill="white"/>
<path fill-rule="evenodd" clip-rule="evenodd" d="M41.4587 68.3325C41.4587 70.931 39.3471 73.0392 36.7446 73.0392C34.1421 73.0392 32.0305 70.931 32.0305 68.3325C32.0305 65.7318 34.1421 63.6257 36.7446 63.6257C39.3471 63.6257 41.4587 65.7318 41.4587 68.3325Z" fill="white"/>
<path fill-rule="evenodd" clip-rule="evenodd" d="M56.4936 68.3325C56.4936 70.931 54.382 73.0392 51.7795 73.0392C49.1748 73.0392 47.0632 70.931 47.0632 68.3325C47.0632 65.7318 49.1748 63.6257 51.7795 63.6257C54.382 63.6257 56.4936 65.7318 56.4936 68.3325Z" fill="white"/>
<path fill-rule="evenodd" clip-rule="evenodd" d="M73.4506 120.278C73.4506 135.582 61.0245 147.987 45.7005 147.987C30.3722 147.987 17.9462 135.582 17.9462 120.278C17.9462 104.975 30.3722 92.5706 45.7005 92.5706C61.0245 92.5706 73.4506 104.975 73.4506 120.278Z" fill="#F8FCFF"/>
<path fill-rule="evenodd" clip-rule="evenodd" d="M53.8163 215.676H82.3397C82.8437 215.676 83.2543 216.081 83.2543 216.587V238.197C83.2543 244.485 78.147 249.582 71.8514 249.582H64.3046C58.009 249.582 52.9017 244.485 52.9017 238.197V216.587C52.9017 216.081 53.3123 215.676 53.8163 215.676Z" fill="white"/>
<path fill-rule="evenodd" clip-rule="evenodd" d="M57.2361 245.856C50.7993 242.227 39.7549 231.518 41.5971 223.981C42.0859 221.966 43.322 220.45 45.162 219.598C49.4286 217.617 55.5351 220.008 56.2173 220.287L54.1861 224.517C52.711 223.92 49.1114 222.942 47.4148 223.732C47.0715 223.89 46.6935 224.168 46.4937 224.996C45.4205 229.386 54.0623 238.644 59.8538 241.908L57.2361 245.856Z" fill="white"/>
<path fill-rule="evenodd" clip-rule="evenodd" d="M63.4394 130.563H60.2438V122.475C60.2438 120.712 58.8078 119.278 57.0439 119.278C55.2777 119.278 53.8418 120.712 53.8418 122.475V130.565H49.547V118.679C49.547 116.918 48.1132 115.487 46.3492 115.487C44.5831 115.487 43.1471 116.918 43.1471 118.679V130.565H38.8567V107.583C38.8567 105.819 37.4185 104.388 35.6546 104.388C33.8884 104.388 32.4546 105.819 32.4546 107.583V130.563H29.2612C28.7898 130.563 28.4097 130.947 28.4097 131.416C28.4097 131.884 28.7898 132.266 29.2612 132.266H63.4394C63.9086 132.266 64.2909 131.884 64.2909 131.416C64.2909 130.947 63.9086 130.563 63.4394 130.563Z" fill="#84B4FE"/>
<path fill-rule="evenodd" clip-rule="evenodd" d="M326.48 66.3627C326.476 66.3432 326.484 66.3237 326.482 66.3063C326.476 66.2586 326.467 66.213 326.465 66.1675C326.465 66.1458 326.456 66.1284 326.456 66.1068V29.7151C306.966 30.4612 291.392 46.4642 291.392 66.1068C291.392 86.2265 307.726 102.535 327.877 102.535C329.637 102.535 331.368 102.403 333.062 102.162C332.5 99.1256 331.905 95.8981 331.309 92.6663C328.885 79.5156 326.48 66.3627 326.48 66.3627Z" fill="#9CA5B4"/>
<path fill-rule="evenodd" clip-rule="evenodd" d="M329.293 61.0404L345.571 34.251C340.718 31.5571 335.187 29.9412 329.293 29.7156V61.0404Z" fill="#232931"/>
<path fill-rule="evenodd" clip-rule="evenodd" d="M347.998 35.7241L329.296 66.125C330.841 74.5624 333.758 90.3355 335.855 101.651C351.719 98.1157 363.681 84.2731 364.324 67.524V64.6891C363.861 52.5882 357.487 42.0012 347.998 35.7241Z" fill="white"/>
<path fill-rule="evenodd" clip-rule="evenodd" d="M145.228 17.8542C145.228 19.6067 143.805 21.0274 142.05 21.0274C140.295 21.0274 138.87 19.6067 138.87 17.8542C138.87 16.1016 140.295 14.6809 142.05 14.6809C143.805 14.6809 145.228 16.1016 145.228 17.8542Z" fill="white"/>
<path fill-rule="evenodd" clip-rule="evenodd" d="M158.428 17.8542C158.428 19.6067 157.005 21.0274 155.25 21.0274C153.494 21.0274 152.069 19.6067 152.069 17.8542C152.069 16.1016 153.494 14.6809 155.25 14.6809C157.005 14.6809 158.428 16.1016 158.428 17.8542Z" fill="white"/>
<path fill-rule="evenodd" clip-rule="evenodd" d="M171.628 17.8542C171.628 19.6067 170.205 21.0274 168.45 21.0274C166.694 21.0274 165.269 19.6067 165.269 17.8542C165.269 16.1016 166.694 14.6809 168.45 14.6809C170.205 14.6809 171.628 16.1016 171.628 17.8542Z" fill="white"/>
</svg>
