<svg width="52" height="52" viewBox="0 0 52 52" fill="none" xmlns="http://www.w3.org/2000/svg">
<path opacity="0.4" d="M46.5046 16.2196V37.844C46.5046 37.844 45.4254 43.2501 41.109 43.2501V50.8186H18.4475V42.1689C18.4475 38.9252 16.2893 38.9252 16.2893 38.9252H9.81464C8.06404 38.9626 6.61462 37.5711 6.57729 35.8171C6.57627 35.7719 6.57627 35.7268 6.57729 35.6816V31.6486C5.69308 30.8234 4.54676 30.3371 3.33993 30.2754C2.17266 30.3001 1.20641 29.3721 1.18173 28.2026C1.18112 28.1727 1.18112 28.1429 1.18173 28.113L6.57729 18.3171V16.2196C6.57729 7.85955 13.3412 1.08252 21.6849 1.08252H30.3178C38.6595 1.08252 46.5046 7.86178 46.5046 16.2196Z" fill="#DB3B61"/>
<path d="M38.9507 19.4634C40.7387 19.4634 42.1881 18.0112 42.1881 16.2197C42.1881 14.4283 40.7387 12.9761 38.9507 12.9761C37.1628 12.9761 35.7134 14.4283 35.7134 16.2197C35.7134 18.0112 37.1628 19.4634 38.9507 19.4634Z" fill="#DB3B61"/>
<path fill-rule="evenodd" clip-rule="evenodd" d="M50.8211 18.3821V14.0572H47.3032C47.0989 13.2768 46.7904 12.5276 46.3859 11.8299L48.8678 9.34311L45.8139 6.28322L43.332 8.76999C42.6357 8.36474 41.8879 8.05558 41.109 7.85092V4.32617H36.7925V7.85092C36.0136 8.05558 35.2659 8.36474 34.5696 8.76999L32.0876 6.28322L29.0337 9.34311L31.5156 11.8299C31.1112 12.5275 30.8026 13.2768 30.5983 14.0572H27.0804V18.3821H30.5983C30.8026 19.1625 31.1112 19.9117 31.5156 20.6094L29.0337 23.0961L32.0876 26.156L34.5696 23.6693C35.2658 24.0745 36.0136 24.3837 36.7925 24.5883V28.1131H41.109V24.5883C41.8879 24.3837 42.6356 24.0745 43.332 23.6693L45.8139 26.156L48.8678 23.0961L46.3859 20.6094C46.7904 19.9118 47.0989 19.1625 47.3032 18.3821H50.8211ZM38.9508 12.9759C40.7387 12.9759 42.1882 14.4282 42.1882 16.2196C42.1882 18.0111 40.7387 19.4632 38.9508 19.4632C37.1629 19.4632 35.7135 18.011 35.7135 16.2196C35.7135 14.4282 37.1629 12.9759 38.9508 12.9759Z" fill="white"/>
<path d="M30.3179 35.6818C31.5098 35.6818 32.4761 34.7136 32.4761 33.5193C32.4761 32.3251 31.5098 31.3569 30.3179 31.3569C29.1259 31.3569 28.1597 32.3251 28.1597 33.5193C28.1597 34.7136 29.1259 35.6818 30.3179 35.6818Z" fill="white"/>
<path d="M18.4476 30.2755C19.6396 30.2755 20.6058 29.3074 20.6058 28.1131C20.6058 26.9188 19.6396 25.9507 18.4476 25.9507C17.2557 25.9507 16.2894 26.9188 16.2894 28.1131C16.2894 29.3074 17.2557 30.2755 18.4476 30.2755Z" fill="white"/>
<path d="M28.1597 12.9759C29.3516 12.9759 30.3179 12.0078 30.3179 10.8135C30.3179 9.61927 29.3516 8.65112 28.1597 8.65112C26.9677 8.65112 26.0015 9.61927 26.0015 10.8135C26.0015 12.0078 26.9677 12.9759 28.1597 12.9759Z" fill="white"/>
<path fill-rule="evenodd" clip-rule="evenodd" d="M19.5267 36.7629V31.1579C21.2123 30.5607 22.0957 28.7075 21.4997 27.0185C20.9038 25.3295 19.0541 24.4444 17.3684 25.0415C15.6826 25.6387 14.7993 27.4919 15.3953 29.181C15.7213 30.1047 16.4464 30.8313 17.3684 31.1579V36.7629C17.4217 37.3068 17.0249 37.7908 16.4821 37.8442C16.418 37.8505 16.3534 37.8505 16.2892 37.8442H9.81451C8.69398 37.9158 7.72763 37.0636 7.6563 35.9409C7.65084 35.8546 7.65084 35.768 7.6563 35.6818V31.651C7.65641 31.3414 7.52398 31.0465 7.29261 30.8412C6.21032 29.8421 4.81006 29.2587 3.3398 29.1946C2.8203 29.2577 2.34816 28.887 2.28503 28.3665L2.28331 28.3512L7.52246 18.8364C7.60997 18.6767 7.6559 18.4975 7.6563 18.3153V16.2199C7.66521 8.46064 13.9408 2.1728 21.6849 2.16388H25.9884C26.5331 2.1059 27.0215 2.50132 27.0793 3.04707C27.0863 3.11285 27.0867 3.17925 27.0805 3.24513V7.76893C25.3949 8.36607 24.5115 10.2193 25.1075 11.9084C25.7034 13.5973 27.5531 14.4824 29.2388 13.8853C30.9245 13.2881 31.8079 11.4349 31.2119 9.74584C30.8859 8.82211 30.1608 8.09553 29.2388 7.76893V3.24503C29.2896 1.5045 27.9226 0.0522534 26.1855 0.00136842C26.1242 -0.00045614 26.0628 -0.00045614 26.0015 0.00136842H21.685C12.7495 0.0115049 5.50832 7.26677 5.4982 16.2197V18.0373L0.236289 27.591C0.148678 27.751 0.102647 27.9306 0.102445 28.1132C0.0516587 29.8537 1.41863 31.306 3.15578 31.3569C3.21708 31.3587 3.27849 31.3587 3.3398 31.3569C4.12465 31.4005 4.87754 31.6831 5.498 32.1667V35.6817C5.42961 38.0017 7.25133 39.9381 9.56695 40.0066C9.6494 40.009 9.73195 40.009 9.81451 40.0066H16.2892C18.0264 40.0575 19.4758 38.6879 19.5266 36.9473C19.5284 36.8859 19.5284 36.8244 19.5267 36.7629ZM28.1596 11.8949C27.5636 11.8949 27.0804 11.4108 27.0804 10.8136C27.0804 10.2165 27.5636 9.73236 28.1596 9.73236C28.7556 9.73236 29.2387 10.2165 29.2387 10.8136C29.2387 11.4108 28.7556 11.8949 28.1596 11.8949ZM19.5267 28.1132C19.5267 27.5161 19.0435 27.0319 18.4475 27.0319C17.8515 27.0319 17.3684 27.5161 17.3684 28.1132C17.3684 28.7103 17.8515 29.1945 18.4475 29.1945C19.0435 29.1945 19.5267 28.7103 19.5267 28.1132Z" fill="#232931"/>
<path fill-rule="evenodd" clip-rule="evenodd" d="M33.3567 32.438H44.3464C44.4077 32.4362 44.469 32.4362 44.5304 32.4382C46.2676 32.489 47.6345 33.9413 47.5837 35.6818V37.8442C47.5835 37.9155 47.5764 37.9865 47.5622 38.0562C47.1694 40.0272 45.5615 43.5931 42.1882 44.2321V50.8189C42.1882 51.416 41.705 51.9002 41.109 51.9002H18.4476C17.8516 51.9002 17.3684 51.416 17.3684 50.8189V46.494H19.5267V49.7376H40.0299V43.2503C40.0299 42.6532 40.5131 42.1691 41.109 42.1691C44.2298 42.1691 45.2702 38.374 45.4255 37.7252V35.6817C45.4318 35.6175 45.4318 35.5527 45.4255 35.4884C45.3722 34.9446 44.8892 34.5472 44.3464 34.6005H33.3567C33.0307 35.5242 32.3056 36.2508 31.3836 36.5774C29.6979 37.1745 27.8482 36.2894 27.2523 34.6005C26.6563 32.9114 27.5397 31.0582 29.2253 30.461C30.9111 29.8639 32.7607 30.749 33.3567 32.438ZM29.2387 33.5192C29.2387 34.1164 29.7218 34.6005 30.3178 34.6005C30.9138 34.6005 31.397 34.1164 31.397 33.5192C31.397 32.9221 30.9138 32.438 30.3178 32.438C29.7218 32.438 29.2387 32.9221 29.2387 33.5192Z" fill="#232931"/>
<path d="M50.8211 12.9759H48.0996C47.9854 12.6546 47.8546 12.3396 47.7079 12.032L49.6341 10.1031C50.0553 9.68091 50.0553 8.9965 49.6341 8.57421L46.5813 5.51544C46.1599 5.09336 45.4768 5.09336 45.0553 5.51544L43.1302 7.4443C42.8231 7.29783 42.5087 7.16727 42.1882 7.05294V4.32613C42.1882 3.72899 41.705 3.24487 41.109 3.24487H36.7925C36.1965 3.24487 35.7134 3.72899 35.7134 4.32613V7.05294C35.1258 7.26083 34.5598 7.5255 34.0235 7.84327L35.1209 9.70514C35.7277 9.34722 36.3816 9.07607 37.0633 8.89959C37.5392 8.77593 37.8716 8.34564 37.8716 7.85301V5.40738H40.0298V7.85311C40.0299 8.34604 40.3627 8.77654 40.8391 8.8997C41.5209 9.07617 42.1747 9.34732 42.7815 9.70524C43.2056 9.95632 43.7455 9.8878 44.0938 9.5387L45.8204 7.80871L47.3463 9.33759L45.6197 11.0676C45.2709 11.4162 45.2021 11.9573 45.4524 12.3824C45.8104 12.9903 46.0817 13.6454 46.2585 14.3286C46.3814 14.8055 46.8105 15.1389 47.3021 15.1395H49.7419V17.3019H47.301C46.8094 17.3025 46.3803 17.6359 46.2574 18.1128C46.0806 18.796 45.8092 19.4511 45.4513 20.059C45.201 20.4841 45.2698 21.0251 45.6185 21.3738L47.3452 23.1038L45.8193 24.6327L44.0926 22.9027C43.7444 22.5536 43.2045 22.4851 42.7804 22.7362C42.1736 23.0941 41.5198 23.3652 40.838 23.5417C40.3616 23.665 40.0287 24.0954 40.0286 24.5883V27.0319H37.8715V24.5862C37.8714 24.0932 37.5385 23.6627 37.0621 23.5396C36.3804 23.3631 35.7265 23.0919 35.1197 22.734C34.6956 22.4829 34.1557 22.5515 33.8075 22.9006L32.0808 24.6306L30.5549 23.1017L32.2816 21.3717C32.6303 21.0231 32.6991 20.482 32.4488 20.0569C32.0909 19.449 31.8195 18.7939 31.6427 18.1107C31.5198 17.6338 31.0907 17.3004 30.5991 17.2998H27.0804V19.4622H29.8019C29.9162 19.7834 30.0469 20.0984 30.1937 20.4061L28.2674 22.3361C27.8462 22.7583 27.8462 23.4427 28.2674 23.865L31.3203 26.9237C31.7416 27.3458 32.4247 27.3458 32.8462 26.9237L34.7713 24.9959C35.0784 25.1423 35.3929 25.2729 35.7134 25.3872V28.113C35.7134 28.7102 36.1965 29.1943 36.7925 29.1943H41.109C41.705 29.1943 42.1882 28.7102 42.1882 28.113V25.3862C42.5087 25.2719 42.8231 25.1412 43.1302 24.9949L45.0553 26.9237C45.4767 27.3458 46.1598 27.3458 46.5813 26.9237L49.6341 23.865C50.0553 23.4428 50.0553 22.7584 49.6341 22.3361L47.709 20.4072C47.8554 20.0996 47.9858 19.7845 48.0996 19.4633H50.8211C51.4171 19.4633 51.9002 18.9792 51.9002 18.382V14.0571C51.9002 13.46 51.4171 12.9759 50.8211 12.9759Z" fill="#232931"/>
<path fill-rule="evenodd" clip-rule="evenodd" d="M43.2673 16.2197C43.2673 18.6082 41.3347 20.5446 38.9508 20.5446C36.5668 20.5446 34.6343 18.6082 34.6343 16.2197C34.6343 13.8311 36.5669 11.8948 38.9508 11.8948C41.3347 11.8948 43.2673 13.8311 43.2673 16.2197ZM41.109 16.2197C41.109 15.0254 40.1427 14.0573 38.9508 14.0573C37.7588 14.0573 36.7926 15.0254 36.7926 16.2197C36.7926 17.414 37.7588 18.3821 38.9508 18.3821C40.1427 18.3821 41.109 17.414 41.109 16.2197Z" fill="#232931"/>
<path d="M10.8937 17.3008V18.382C10.869 19.5516 11.7952 20.5197 12.9624 20.5444C12.9923 20.5451 13.022 20.5451 13.0519 20.5444H16.2892C17.4565 20.5692 18.4227 19.6412 18.4474 18.4716C18.448 18.4417 18.448 18.4119 18.4474 18.382V17.3008H16.2892V18.382H13.0519V17.3008H10.8937Z" fill="#232931"/>
<path d="M22.764 17.3008H24.9222V19.4632H22.764V17.3008Z" fill="#232931"/>
<path d="M22.764 21.6257H24.9222V23.7881H22.764V21.6257Z" fill="#232931"/>
<path d="M17.3684 42.1689H19.5266V44.3314H17.3684V42.1689Z" fill="#232931"/>
</svg>
