<svg width="52" height="52" viewBox="0 0 52 52" fill="none" xmlns="http://www.w3.org/2000/svg">
<path d="M50.9166 18.4165V31.4165C50.9166 32.0148 50.4316 32.4999 49.8333 32.4999H45.5V17.3333H49.8334C50.4317 17.3333 50.9166 17.8182 50.9166 18.4165Z" fill="white"/>
<path d="M6.49999 17.3334V32.5H2.16662C1.56831 32.5 1.08325 32.0149 1.08325 31.4166V18.4166C1.08325 17.8183 1.56831 17.3333 2.16662 17.3333H6.49999V17.3334Z" fill="white"/>
<path opacity="0.2" d="M45.5 32.4999V42.2499C45.4964 43.4451 44.5285 44.413 43.3334 44.4165H40.0834V45.4999C40.0834 46.0982 39.5983 46.5833 39 46.5833H13C12.4017 46.5833 11.9166 46.0982 11.9166 45.4999V44.4165H8.66663C7.47155 44.413 6.50355 43.4451 6.5 42.2499V7.58325C6.50355 6.38817 7.47155 5.42017 8.66663 5.41662H15.1666V2.16662C15.1666 1.56831 15.6517 1.08325 16.25 1.08325H35.75C36.3483 1.08325 36.8334 1.56831 36.8334 2.16662V5.41662H43.3334C44.5285 5.42017 45.4964 6.38817 45.5 7.58325V32.4999Z" fill="#DB3B61"/>
<path d="M36.8334 2.16662C36.8334 1.56831 36.3483 1.08325 35.75 1.08325H16.25C15.6517 1.08325 15.1666 1.56831 15.1666 2.16662V5.41662H36.8333V2.16662H36.8334Z" fill="white"/>
<path d="M37.9166 32.5V36.8334C37.9166 37.4317 37.4316 37.9167 36.8333 37.9167H31.4166V31.4167H36.8333C37.4317 31.4166 37.9166 31.9017 37.9166 32.5Z" fill="#95ADC0"/>
<path d="M20.5834 31.4167H26V37.9167H20.5834V31.4167Z" fill="#95ADC0"/>
<path d="M26 31.4167H31.4166V37.9167H26V31.4167Z" fill="#AAC4DA"/>
<path d="M20.5834 31.4167V37.9167H15.1667C14.5684 37.9167 14.0834 37.4317 14.0834 36.8334V32.5001C14.0834 31.9018 14.5684 31.4167 15.1667 31.4167H20.5834Z" fill="white"/>
<path d="M17.3334 24.9165C20.3249 24.9165 22.75 22.4914 22.75 19.4999C22.75 16.5084 20.3249 14.0833 17.3334 14.0833C14.3419 14.0833 11.9167 16.5084 11.9167 19.4999C11.9167 22.4914 14.3419 24.9165 17.3334 24.9165Z" fill="white"/>
<path d="M34.6666 24.9165C37.6582 24.9165 40.0833 22.4914 40.0833 19.4999C40.0833 16.5084 37.6582 14.0833 34.6666 14.0833C31.6751 14.0833 29.25 16.5084 29.25 19.4999C29.25 22.4914 31.6751 24.9165 34.6666 24.9165Z" fill="white"/>
<path d="M34.6666 50.9167C42.4446 50.9167 48.75 44.6114 48.75 36.8334C48.75 29.0553 42.4446 22.75 34.6666 22.75C26.8886 22.75 20.5833 29.0553 20.5833 36.8334C20.5833 44.6114 26.8886 50.9167 34.6666 50.9167Z" fill="white"/>
<path d="M49.8334 16.25H47.6667V18.4166H49.8334V29.25H52V18.4166C52 17.22 51.03 16.25 49.8334 16.25Z" fill="black"/>
<path d="M0 18.4166V31.4166C0 32.6132 0.970024 33.5833 2.16663 33.5833H4.33327V31.4166H2.16663V18.4166H4.33327V16.25H2.16663C0.970024 16.25 0 17.22 0 18.4166Z" fill="black"/>
<path d="M22.75 4.33325H29.25V6.49988H22.75V4.33325Z" fill="black"/>
<path d="M5.41662 1.08325H3.24999V3.24988C3.30351 3.79477 2.90518 4.27973 2.3603 4.33325C2.29591 4.33955 2.23101 4.33955 2.16662 4.33325C1.56831 4.33325 1.08325 4.81831 1.08325 5.41662V15.1666H3.24999V6.319C4.59071 5.91407 5.48396 4.64881 5.41662 3.24988V1.08325Z" fill="black"/>
<path d="M48.75 6.319V15.1666H50.9167V5.41662C50.9099 4.82624 50.4366 4.34727 49.8463 4.33325C49.2995 4.39135 48.8092 3.99515 48.7511 3.44834C48.7442 3.38242 48.7438 3.3159 48.75 3.24988V1.08325H46.5834V3.24988C46.5161 4.64881 47.4093 5.91407 48.75 6.319Z" fill="black"/>
<path d="M13 44.4166C13 43.8183 12.5149 43.3333 11.9166 43.3333H8.66663C8.06832 43.3333 7.58326 42.8482 7.58326 42.2499V7.58337C7.58336 6.98506 8.06832 6.5 8.66663 6.5H15.1666C15.7649 6.5 16.25 6.01494 16.25 5.41663V2.16663H35.75V5.41663C35.75 6.01494 36.2351 6.5 36.8334 6.5H43.3334C43.9317 6.5 44.4167 6.98506 44.4167 7.58337V22.75H46.5834V7.58337C46.5834 5.78845 45.1283 4.33337 43.3334 4.33337H37.9167V2.16663C37.9166 0.970024 36.9466 0 35.75 0H16.25C15.0534 0 14.0834 0.970024 14.0834 2.16663V4.33327H8.66663C6.87171 4.33327 5.41663 5.78835 5.41663 7.58327V42.25C5.41663 44.0449 6.87171 45.5 8.66663 45.5H10.8333C10.8333 46.6966 11.8033 47.6666 12.9999 47.6666H19.4999V45.5H12.9999V44.4166H13Z" fill="black"/>
<path d="M17.3334 32.4999V30.3333H15.1667C13.97 30.3333 13 31.3033 13 32.4999V36.8333C13 38.0299 13.97 38.9999 15.1666 38.9999H17.3333V36.8333H15.1666V32.4999H17.3334Z" fill="black"/>
<path fill-rule="evenodd" clip-rule="evenodd" d="M17.3334 13C20.9232 13 23.8334 15.9102 23.8334 19.5C23.8297 23.0884 20.9217 25.9964 17.3334 26C13.7435 26 10.8334 23.0898 10.8334 19.5C10.8334 15.9102 13.7435 13 17.3334 13ZM17.3334 15.1666C14.9402 15.1666 13 17.1068 13 19.5C13 21.8932 14.9402 23.8334 17.3334 23.8334C19.7266 23.8334 21.6667 21.8932 21.6667 19.5C21.6667 17.1068 19.7266 15.1666 17.3334 15.1666Z" fill="black"/>
<path d="M39 19.5H41.1666C41.1666 15.9102 38.2565 13 34.6666 13C31.0768 13 28.1666 15.9102 28.1666 19.5H30.3333C30.3333 17.1068 32.2734 15.1666 34.6666 15.1666C37.0599 15.1666 39 17.1068 39 19.5Z" fill="black"/>
<path d="M16.25 18.4167H18.4166V20.5834H16.25V18.4167Z" fill="black"/>
<path d="M33.5834 18.4167H35.75V20.5834H33.5834V18.4167H33.5834Z" fill="black"/>
<path d="M18.4166 4.33325H20.5833V6.49988H18.4166V4.33325Z" fill="black"/>
<path d="M31.4166 4.33325H33.5833V6.49988H31.4166V4.33325H31.4166Z" fill="black"/>
<path fill-rule="evenodd" clip-rule="evenodd" d="M19.5 36.8335C19.5 28.4571 26.2904 21.6667 34.6666 21.6667C43.0392 21.6758 49.8243 28.4609 49.8333 36.8335C49.8333 45.2097 43.0429 52.0001 34.6666 52.0001C26.2904 52.0001 19.5 45.2099 19.5 36.8335ZM21.6666 36.8335C21.6666 44.0131 27.487 49.8335 34.6666 49.8335C41.8431 49.8257 47.6589 44.0099 47.6666 36.8335C47.6666 29.6538 41.8463 23.8335 34.6666 23.8335C27.487 23.8335 21.6666 29.6538 21.6666 36.8335Z" fill="black"/>
<path d="M39.0001 35.7501H32.9486L38.6827 30.016L37.1508 28.4841L29.5674 36.0675C29.1444 36.4906 29.1445 37.1766 29.5676 37.5996C29.7708 37.8026 30.0461 37.9166 30.3333 37.9167H36.1162L29.6162 43.601L31.0441 45.2325L39.7107 37.6491C40.1612 37.2555 40.2073 36.571 39.8136 36.1205C39.6084 35.8858 39.312 35.7507 39.0001 35.7501Z" fill="black"/>
</svg>
