<svg width="154" height="26" viewBox="0 0 154 26" fill="none" xmlns="http://www.w3.org/2000/svg">
<path fill-rule="evenodd" clip-rule="evenodd" d="M31 22.58V7.84H32.078V10.348C33.046 8.874 34.476 7.576 36.698 7.576C39.404 7.576 42.154 9.754 42.154 13.406V13.45C42.154 17.102 39.404 19.324 36.698 19.324C34.454 19.324 33.002 18.048 32.078 16.64V22.58H31ZM36.588 18.29C39.03 18.29 40.988 16.508 40.988 13.494V13.45C40.988 10.502 38.942 8.61 36.588 8.61C34.256 8.61 32.012 10.568 32.012 13.428V13.472C32.012 16.354 34.256 18.29 36.588 18.29ZM45.52 19.06V7.84H46.598V11.03C47.478 9.028 49.348 7.576 51.57 7.664V8.852H51.46C48.864 8.852 46.598 10.81 46.598 14.462V19.06H45.52ZM59.292 19.324C55.97 19.324 53.55 16.64 53.55 13.494V13.45C53.55 10.304 55.992 7.576 59.336 7.576C62.658 7.576 65.078 10.26 65.078 13.406V13.45C65.078 16.596 62.636 19.324 59.292 19.324ZM59.336 18.312C61.998 18.312 63.912 16.134 63.912 13.494V13.45C63.912 10.744 61.888 8.588 59.292 8.588C56.63 8.588 54.716 10.766 54.716 13.406V13.45C54.716 16.156 56.74 18.312 59.336 18.312ZM73.13 19.324C70.424 19.324 67.674 17.146 67.674 13.494V13.45C67.674 9.798 70.424 7.576 73.13 7.576C75.374 7.576 76.826 8.852 77.75 10.26V3H78.828V19.06H77.75V16.552C76.782 18.026 75.352 19.324 73.13 19.324ZM73.24 18.29C75.572 18.29 77.816 16.332 77.816 13.472V13.428C77.816 10.546 75.572 8.61 73.24 8.61C70.798 8.61 68.84 10.392 68.84 13.406V13.45C68.84 16.398 70.886 18.29 73.24 18.29ZM85.188 19.324C82.35 19.324 80.7 17.388 80.7 14.704V7.84H81.778V14.506C81.778 16.816 83.076 18.334 85.342 18.334C87.542 18.334 89.236 16.662 89.236 14.33V7.84H90.314V19.06H89.236V16.97C88.488 18.29 87.234 19.324 85.188 19.324ZM98.356 19.324C95.122 19.324 92.636 16.64 92.636 13.494V13.45C92.636 10.304 95.144 7.576 98.356 7.576C100.468 7.576 101.788 8.544 102.844 9.644L102.074 10.436C101.106 9.446 100.006 8.588 98.334 8.588C95.782 8.588 93.802 10.722 93.802 13.406V13.45C93.802 16.156 95.848 18.312 98.422 18.312C100.006 18.312 101.238 17.498 102.184 16.442L102.932 17.102C101.788 18.4 100.424 19.324 98.356 19.324ZM109.708 19.258C107.97 19.258 106.562 18.312 106.562 16.178V8.83H104.934V7.84H106.562V4.254H107.64V7.84H111.578V8.83H107.64V16.068C107.64 17.674 108.586 18.246 109.884 18.246C110.434 18.246 110.896 18.136 111.534 17.85V18.862C110.962 19.126 110.412 19.258 109.708 19.258ZM114.068 19.06V7.268H117.412V9.644C118.094 8.016 119.194 6.96 121.174 7.048V10.546H120.998C118.776 10.546 117.412 11.888 117.412 14.704V19.06H114.068ZM126.18 19.28C123.65 19.28 122.176 17.608 122.176 14.902V7.268H125.52V13.846C125.52 15.43 126.268 16.244 127.544 16.244C128.82 16.244 129.634 15.43 129.634 13.846V7.268H132.978V19.06H129.634V17.388C128.864 18.378 127.874 19.28 126.18 19.28ZM133.97 19.06V7.268H137.314V8.94C138.084 7.95 139.074 7.048 140.768 7.048C143.298 7.048 144.772 8.72 144.772 11.426V19.06H141.428V12.482C141.428 10.898 140.68 10.084 139.404 10.084C138.128 10.084 137.314 10.898 137.314 12.482V19.06H133.97ZM150.658 19.258C148.612 19.258 147.226 18.444 147.226 15.716V10.128H145.818V7.268H147.226V4.254H150.57V7.268H153.342V10.128H150.57V15.166C150.57 15.936 150.9 16.31 151.648 16.31C152.264 16.31 152.814 16.156 153.298 15.892V18.576C152.594 18.994 151.78 19.258 150.658 19.258Z" fill="#232931"/>
<path fill-rule="evenodd" clip-rule="evenodd" d="M13.4744 23.4057C10.8906 24.098 8.29621 24.1566 5.99024 23.6286L6.62739 19.8292C8.50748 20.3121 10.2841 20.409 12.3927 19.8441C15.4813 19.0165 16.5387 17.1416 15.7747 14.2906L15.5678 13.5184C14.6611 15.4802 13.4685 16.8502 11.063 17.4948C7.35066 18.4895 3.27059 16.6861 2.00533 11.9641C0.716189 7.15295 3.41531 3.56497 7.06821 2.58618C9.53317 1.9257 16.7998 0.296929 16.7998 0.296929L20.1022 12.6217C20.8661 15.4728 20.7401 17.7347 19.7618 19.4292C18.6747 21.312 16.563 22.5781 13.4744 23.4057Z" fill="#DB3B61"/>
</svg>
